# File produced by Open Asset Import Library (http://www.assimp.sf.net)
# (assimp v3.1.206520482)

adobe_mdllib huisje.mdl

# 70 vertex positions
v 2.63927 3.84446 30.2022
v 3.08035 8.20302 30.2067
v -0.317441 8.87888 30.2067
v -3.27416 3.84446 30.2022
v 2.63928 0 30.2022
v 7.88557 3.3978 30.2067
v 5.96087 6.27832 30.2067
v -6.59575 6.27832 30.2067
v -8.52046 3.3978 30.2067
v -3.27416 -9.53674e-07 30.2022
v -3.71524 8.20302 30.2067
v -9.19632 -9.53674e-07 30.2067
v 8.56144 0 30.2067
v -3.27416 3.84446 29.8237
v -3.27416 -9.53674e-07 29.8237
v 2.63928 0 29.8237
v 2.63927 3.84446 29.8237
v 7.88557 3.3978 29.8746
v 7.66242 3.30537 29.8791
v 5.79008 6.10752 29.8791
v 5.96087 6.27832 29.8746
v -6.59576 6.27832 29.8746
v -6.42496 6.10752 29.8791
v -8.2973 3.30536 29.8791
v -8.52046 3.3978 29.8746
v -0.317441 8.87888 29.8746
v -0.317441 8.63733 29.8791
v -3.62281 7.97986 29.8791
v -3.71524 8.20302 29.8746
v 2.98792 7.97986 29.8791
v 3.08035 8.20302 29.8746
v 8.56144 0 29.8746
v -9.19632 -9.53674e-07 29.8746
v 8.3199 -1.90735e-06 29.8791
v -8.95478 -2.86102e-06 29.8791
v 2.98792 7.97986 -31.5562
v -0.317441 8.63734 -31.5562
v 7.66242 3.30537 -31.5562
v 5.79008 6.10752 -31.5562
v -6.42496 6.10752 -31.5562
v -8.2973 3.30537 -31.5562
v -3.62281 7.97986 -31.5562
v -8.95478 1.90735e-06 -31.5562
v 8.3199 2.86102e-06 -31.5562
v -0.317441 8.87888 -31.8837
v 3.08035 8.20302 -31.8837
v 2.63927 3.84447 -31.8792
v -3.27416 3.84447 -31.8792
v 5.96087 6.27832 -31.8837
v 7.88557 3.3978 -31.8837
v 2.63928 1.90735e-06 -31.8792
v -8.52046 3.3978 -31.8837
v -6.59575 6.27832 -31.8837
v -3.27416 1.90735e-06 -31.8792
v -3.71524 8.20302 -31.8837
v -9.19632 1.90735e-06 -31.8837
v 8.56144 1.90735e-06 -31.8837
v -3.27416 3.84447 -31.5008
v -3.27416 1.90735e-06 -31.5008
v 2.63928 1.90735e-06 -31.5008
v 2.63927 3.84447 -31.5008
v 7.88557 3.3978 -31.5517
v 5.96087 6.27832 -31.5517
v -6.59576 6.27832 -31.5517
v -8.52046 3.3978 -31.5517
v -0.317441 8.87888 -31.5517
v -3.71524 8.20302 -31.5517
v 3.08035 8.20302 -31.5517
v 8.56144 1.90735e-06 -31.5517
v -9.19632 1.90735e-06 -31.5517

# 73 UV coordinates
vt 0.161279 0.0671212 0
vt 0.196268 0.120112 0
vt 0.160647 0.15496 0
vt 0.0685205 0.146532 0
vt 0.147619 0.00830185 0
vt 0.26091 0.0451874 0
vt 0.228951 0.0846902 0
vt 0.0895696 0.221442 0
vt 0.0509872 0.254914 0
vt 0.00128871 0.163902 0
vt 0.124931 0.188933 0
vt 0.00753093 0.284675 0
vt 0.286949 5.96046e-08 0
vt 0.0668289 0.139694 0
vt 0 0.158195 0
vt 0.0413851 0.0776054 0
vt 0.13829 0.0118603 0
vt 0.155647 0.0655063 0
vt 0.26606 0.0475958 0
vt 0.269699 0.0496025 0
vt 0.236282 0.0882849 0
vt 0.23321 0.0867885 0
vt 0.0918114 0.226059 0
vt 0.0934193 0.229381 0
vt 0.0552937 0.263516 0
vt 0.0534819 0.259911 0
vt 0.16404 0.158234 0
vt 0.166505 0.160603 0
vt 0.130339 0.195223 0
vt 0.128098 0.192597 0
vt 0.202011 0.125188 0
vt 0.1996 0.123085 0
vt 0.295844 0.00789481 0
vt 0.0124524 0.292914 0
vt 0.304105 0.010928 0
vt 0.016907 0.298362 0
vt 0.869227 0.792005 0
vt 0.833411 0.827325 0
vt 0.943886 0.723064 0
vt 0.905863 0.757446 0
vt 0.76353 0.899743 0
vt 0.729285 0.93768 0
vt 0.798077 0.863128 0
vt 0.694457 0.975913 0
vt 0.982145 0.688227 0
vt 0.83931 0.833209 0
vt 0.874653 0.797962 0
vt 0.931683 0.836063 0
vt 0.842208 0.925534 0
vt 0.909844 0.765028 0
vt 0.948305 0.731394 0
vt 0.998794 0.819917 0
vt 0.73768 0.941967 0
vt 0.771147 0.903655 0
vt 0.826082 0.992573 0
vt 0.804079 0.868565 0
vt 0.707723 0.985324 0
vt 0.991472 0.701556 0
vt 0.848335 0.927454 0
vt 0.831797 0.993828 0
vt 0.969763 0.892904 0
vt 0.895523 0.961944 0
vt 0.933708 0.842221 0
vt 0.999999 0.825622 0
vt 0.9458 0.726523 0
vt 0.907556 0.760608 0
vt 0.766716 0.901376 0
vt 0.732766 0.939555 0
vt 0.835888 0.8298 0
vt 0.800594 0.865377 0
vt 0.871464 0.794482 0
vt 0.986522 0.693549 0
vt 0.699735 0.980267 0

# 50 vertex normals
vn -0.0006 -0.0006 1
vn -0.0003 -0.001 1
vn 0 -0.001 1
vn 0.0005 -0.0006 1
vn -0.0008 -0.0002 1
vn -0.0008 -0.0006 1
vn 0.0008 -0.0006 1
vn 0.0008 -0.0002 1
vn 0.0004 -0.001 1
vn 1 0 0
vn 0 0 1
vn 0 -1 0
vn -1 -0 0
vn -0.0173 -0.0072 -0.9998
vn -0.0132 -0.0132 -0.9998
vn 0.0132 -0.0132 -0.9998
vn 0.0173 -0.0072 -0.9998
vn 0 -0.0187 -0.9998
vn 0.0072 -0.0173 -0.9998
vn -0.0072 -0.0173 -0.9998
vn -0.7071 0.7071 0
vn -0.3827 0.9239 0
vn 0.9239 0.3827 0
vn 0.9808 0.1951 0
vn -0.9808 0.1951 0
vn -0.9239 0.3827 0
vn 0.3827 0.9239 0
vn 0.7071 0.7071 0
vn 0 1 0
vn -0.0187 -0.0037 -0.9998
vn 0.0187 -0.0037 -0.9998
vn 0 -0.001 -1
vn -0.0003 -0.001 -1
vn -0.0006 -0.0006 -1
vn 0.0005 -0.0006 -1
vn -0.0008 -0.0006 -1
vn -0.0008 -0.0002 -1
vn 0.0008 -0.0002 -1
vn 0.0008 -0.0006 -1
vn 0.0004 -0.001 -1
vn 0 0 -1
vn -0.0132 -0.0132 0.9998
vn -0.0173 -0.0072 0.9998
vn 0.0173 -0.0072 0.9998
vn 0.0132 -0.0132 0.9998
vn 0.0072 -0.0173 0.9998
vn -0 -0.0187 0.9998
vn -0.0072 -0.0173 0.9998
vn -0.0187 -0.0037 0.9998
vn 0.0187 -0.0037 0.9998

# Mesh 'Circle_Circle' with 118 faces
g Circle_Circle
usemtl MATERIAL_NONE
f 1/1/1 2/2/2 3/3/3
f 3/3/3 4/4/4 1/1/1
f 5/5/5 6/6/5 7/7/6
f 7/7/6 1/1/1 5/5/5
f 4/4/4 8/8/7 9/9/8
f 9/9/8 10/10/8 4/4/4
f 3/3/3 11/11/9 4/4/4
f 7/7/6 2/2/2 1/1/1
f 9/9/8 12/12/8 10/10/8
f 13/13/5 6/6/5 5/5/5
f 11/11/9 8/8/7 4/4/4
f 14/14/10 4/4/10 10/10/10
f 10/10/10 15/15/10 14/14/10
f 14/14/11 15/16/11 16/17/11
f 16/17/11 17/18/11 14/14/11
f 17/18/12 1/1/12 4/4/12
f 4/4/12 14/14/12 17/18/12
f 16/17/13 5/5/13 1/1/13
f 1/1/13 17/18/13 16/17/13
f 18/19/14 19/20/14 20/21/15
f 20/21/15 21/22/15 18/19/14
f 22/23/16 23/24/16 24/25/17
f 24/25/17 25/26/17 22/23/16
f 26/27/18 27/28/18 28/29/19
f 28/29/19 29/30/19 26/27/18
f 21/22/15 20/21/15 30/31/20
f 30/31/20 31/32/20 21/22/15
f 22/23/21 8/8/21 11/11/22
f 11/11/22 29/30/22 22/23/21
f 18/19/23 6/6/23 13/13/24
f 13/13/24 32/33/24 18/19/23
f 33/34/25 12/12/25 9/9/26
f 9/9/26 25/26/26 33/34/25
f 31/32/27 2/2/27 7/7/28
f 7/7/28 21/22/28 31/32/27
f 29/30/22 11/11/22 3/3/29
f 3/3/29 26/27/29 29/30/22
f 25/26/26 9/9/26 8/8/21
f 8/8/21 22/23/21 25/26/26
f 21/22/28 7/7/28 6/6/23
f 6/6/23 18/19/23 21/22/28
f 26/27/29 3/3/29 2/2/27
f 2/2/27 31/32/27 26/27/29
f 31/32/20 30/31/20 27/28/18
f 27/28/18 26/27/18 31/32/20
f 29/30/19 28/29/19 23/24/16
f 23/24/16 22/23/16 29/30/19
f 32/33/30 34/35/30 19/20/14
f 19/20/14 18/19/14 32/33/30
f 25/26/17 24/25/17 35/36/31
f 35/36/31 33/34/31 25/26/17
f 36/37/27 37/38/29 27/28/29
f 27/28/29 30/31/27 36/37/27
f 38/39/23 39/40/28 20/21/28
f 20/21/28 19/20/23 38/39/23
f 40/41/21 41/42/26 24/25/26
f 24/25/26 23/24/21 40/41/21
f 37/38/29 42/43/22 28/29/22
f 28/29/22 27/28/29 37/38/29
f 39/40/28 36/37/27 30/31/27
f 30/31/27 20/21/28 39/40/28
f 41/42/26 43/44/25 35/36/25
f 35/36/25 24/25/26 41/42/26
f 44/45/24 38/39/23 19/20/23
f 19/20/23 34/35/24 44/45/24
f 42/43/22 40/41/21 23/24/21
f 23/24/21 28/29/22 42/43/22
f 45/46/32 46/47/33 47/48/34
f 47/48/34 48/49/35 45/46/32
f 49/50/36 50/51/37 51/52/37
f 51/52/37 47/48/34 49/50/36
f 52/53/38 53/54/39 48/49/35
f 48/49/35 54/55/38 52/53/38
f 45/46/32 48/49/35 55/56/40
f 49/50/36 47/48/34 46/47/33
f 52/53/38 54/55/38 56/57/38
f 57/58/37 51/52/37 50/51/37
f 55/56/40 48/49/35 53/54/39
f 54/55/10 48/49/10 58/59/10
f 58/59/10 59/60/10 54/55/10
f 60/61/41 59/62/41 58/59/41
f 58/59/41 61/63/41 60/61/41
f 48/49/12 47/48/12 61/63/12
f 61/63/12 58/59/12 48/49/12
f 47/48/13 51/52/13 60/64/13
f 60/64/13 61/63/13 47/48/13
f 39/40/42 38/39/43 62/65/43
f 62/65/43 63/66/42 39/40/42
f 41/42/44 40/41/45 64/67/45
f 64/67/45 65/68/44 41/42/44
f 42/43/46 37/38/47 66/69/47
f 66/69/47 67/70/46 42/43/46
f 36/37/48 39/40/42 63/66/42
f 63/66/42 68/71/48 36/37/48
f 55/56/22 53/54/21 64/67/21
f 64/67/21 67/70/22 55/56/22
f 57/58/24 50/51/23 62/65/23
f 62/65/23 69/72/24 57/58/24
f 52/53/26 56/57/25 70/73/25
f 70/73/25 65/68/26 52/53/26
f 49/50/28 46/47/27 68/71/27
f 68/71/27 63/66/28 49/50/28
f 45/46/29 55/56/22 67/70/22
f 67/70/22 66/69/29 45/46/29
f 53/54/21 52/53/26 65/68/26
f 65/68/26 64/67/21 53/54/21
f 50/51/23 49/50/28 63/66/28
f 63/66/28 62/65/23 50/51/23
f 46/47/27 45/46/29 66/69/29
f 66/69/29 68/71/27 46/47/27
f 37/38/47 36/37/48 68/71/48
f 68/71/48 66/69/47 37/38/47
f 40/41/45 42/43/46 67/70/46
f 67/70/46 64/67/45 40/41/45
f 38/39/43 44/45/49 69/72/49
f 69/72/49 62/65/43 38/39/43
f 43/44/50 41/42/44 65/68/44
f 65/68/44 70/73/50 43/44/50

