# File produced by Open Asset Import Library (http://www.assimp.sf.net)
# (assimp v3.1.206520482)

adobe_mdllib huisje 2.mdl

# 97 vertex positions
v 25 0 -37.5
v 0 8.21176 -37.5
v 25 8.21176 -37.5
v 24.8498 4.55862 37.3633
v 25 4.55862 37.5
v 25 4.55862 24.3206
v 24.8498 4.55862 24.3206
v -25 0 37.5
v -23.4584 0 37.5
v -23.4584 4 37.5
v -25 9.80195 37.5
v -25 9.80195 -4.70432
v -25 8.21176 -4.70432
v 0 8.21176 -4.70432
v 0 9.80195 -4.70432
v 0 9.80195 37.5
v 25 8.21176 37.5
v 25 9.80195 37.5
v 0 9.80195 -37.5
v -18.0252 8.21176 -37.5
v -25 9.80195 -37.5
v -25 0 16.3862
v -25 8.21176 16.3862
v -25 0 -4.70432
v -25 9.80195 16.3862
v 24.8498 7.37528 37.3633
v 25 7.37528 37.5
v 10.5219 7.37528 37.5
v 10.5219 7.37528 37.3633
v -0.494961 7.37528 -37.2203
v -0.494961 7.37528 -37.5
v -0.494961 4.55862 -37.5
v -0.494961 4.55862 -37.2203
v 25 9.80195 16.3862
v 25 8.21176 16.3862
v 25 7.37528 24.3206
v 25 0 37.5
v 10.5219 4.55862 37.5
v -8.33333 0 37.5
v 25 0 16.3862
v 24.8498 7.37528 24.3206
v 10.5219 4.55862 37.3633
v -17.142 4 37.5
v -15.6114 4 37.5
v -8.33333 4 37.5
v -23.1367 4.55862 -37.2203
v -23.1367 4.55862 -37.5
v -23.1367 7.37528 -37.5
v -23.1367 7.37528 -37.2203
v -8.33333 4 36.9795
v -15.6114 4 36.9795
v -15.6114 0 36.9795
v -8.33333 0 36.9795
v -15.6114 0 37.5
v -17.142 0 37.5
v -16.1717 7.37528 -37.2203
v -16.1717 7.37528 -37.5
v -23.4584 0 36.9795
v -17.142 0 36.9795
v -17.142 4 36.9795
v -23.4584 4 36.9795
v -18.0252 0 -37.5
v -16.1717 4.55862 -37.5
v -25 0 -37.5
v -18.5202 4.55862 -37.5
v -18.5202 7.37528 -37.5
v -16.1717 4.55862 -37.2203
v -18.5202 4.55862 -37.2203
v -18.5202 7.37528 -37.2203
v 25 8.21176 -26.4515
v 25 8.21176 -14.953
v 23.9756 0 -24.7353
v 25 0 -24.7353
v 25 4 -24.7353
v 23.9756 4 -24.7353
v 23.9756 4 -28.1677
v 25 4 -28.1677
v 25 0 -28.1677
v 23.9756 0 -28.1677
v 23.9756 0 -7.32459
v 23.9756 0 -12.4369
v 23.9756 4 -12.4369
v 23.9756 4 -7.32459
v 23.9756 0 -17.4691
v 23.9756 4 -17.4691
v 23.9756 0 -32.9342
v 23.9756 4 -32.9342
v 25 4 -32.9342
v 25 4 -17.4691
v 25 4 -7.32459
v 25 4 -12.4369
v 25 0 -32.9342
v 25 0 -26.4515
v 25 0 -14.953
v 25 0 -17.4691
v 25 0 -12.4369
v 25 0 -7.32459

# 108 UV coordinates
vt 0.884458 0.0552073 0
vt 0.858652 0.306483 0
vt 0.818384 0.0846192 0
vt 0.126739 0.0434504 0
vt 0.125727 0.041883 0
vt 0.257145 0.0585925 0
vt 0.256155 0.0597692 0
vt 0.0775825 0.630687 0
vt 0.0491277 0.608985 0
vt 0.0705649 0.579501 0
vt 0.102624 0.551319 0
vt 0.603513 0.600127 0
vt 0.595232 0.615198 0
vt 0.528665 0.37405 0
vt 0.539819 0.367452 0
vt 0.104259 0.324851 0
vt 0.122927 0.0782921 0
vt 0.133941 0.0912471 0
vt 0.850621 0.321174 0
vt 0.904592 0.478742 0
vt 0.905322 0.546137 0
vt 0.29952 0.650679 0
vt 0.308996 0.574057 0
vt 0.502708 0.665055 0
vt 0.509997 0.587089 0
vt 0.295784 0.562049 0
vt 0.11599 0.0727617 0
vt 0.117503 0.0713458 0
vt 0.0952253 0.219337 0
vt 0.0941589 0.218365 0
vt 0.870187 0.310423 0
vt 0.867361 0.309378 0
vt 0.896891 0.30214 0
vt 0.894915 0.304209 0
vt 0.321793 0.112678 0
vt 0.335877 0.10287 0
vt 0.256203 0.0858845 0
vt 0.0380112 0.0714906 0
vt 0.080689 0.0769306 0
vt 0.0672742 0.216235 0
vt 0.00711662 0.39733 0
vt 0.335664 0.0255928 0
vt 0.13417 5.96046e-08 0
vt 0.255337 0.0845144 0
vt 0.119377 0.0700902 0
vt 0.0685619 0.215552 0
vt 0.0896648 0.0695554 0
vt 0.0818228 0.0785144 0
vt 0.044272 0.496685 0
vt 0.0431765 0.478368 0
vt 0.0458982 0.403494 0
vt 0.94967 0.513785 0
vt 0.952464 0.51508 0
vt 0.92379 0.523562 0
vt 0.925527 0.521115 0
vt 0.529421 0.350768 0
vt 0.0415272 0.4069 0
vt 0.0382737 0.475908 0
vt 0 0.472205 0
vt 0.00560296 0.401852 0
vt 0.0031175 0.500848 0
vt 0.000941694 0.496691 0
vt 0.00727558 0.514997 0
vt 0.908797 0.456519 0
vt 0.906965 0.458859 0
vt 0.0398011 0.601528 0
vt 0.0091188 0.520841 0
vt 0.0416813 0.502878 0
vt 0.0660066 0.578007 0
vt 0.979071 0.454812 0
vt 0.935184 0.449955 0
vt 0.999999 0.519164 0
vt 0.939668 0.472319 0
vt 0.912767 0.480772 0
vt 0.932516 0.449195 0
vt 0.938227 0.474912 0
vt 0.915243 0.481936 0
vt 0.724429 0.091078 0
vt 0.618499 0.100191 0
vt 0.707532 0.00643605 0
vt 0.717854 0.00740054 0
vt 0.711963 0.0509502 0
vt 0.706185 0.0423699 0
vt 0.755497 0.0383293 0
vt 0.74722 0.0469486 0
vt 0.74599 0.00425613 0
vt 0.755158 2.98023e-08 0
vt 0.611213 0.691326 0
vt 0.921652 0.636178 0
vt 0.550353 0.0139809 0
vt 0.592848 0.0172303 0
vt 0.590445 0.053 0
vt 0.552631 0.0519722 0
vt 0.643051 0.012135 0
vt 0.648263 0.0490116 0
vt 0.811605 0.00523332 0
vt 0.796852 0.034859 0
vt 0.800123 0.0427888 0
vt 0.642086 0.0577887 0
vt 0.546128 0.0606699 0
vt 0.59633 0.060664 0
vt 0.825914 0.0140874 0
vt 0.732103 0.00860667 0
vt 0.618851 0.0219292 0
vt 0.635792 0.0161403 0
vt 0.601182 0.0188369 0
vt 0.541256 0.0222072 0
vt 0.548328 0.0193301 0

# 6 vertex normals
vn 0 0 -1
vn 0 1 0
vn 0 0 1
vn -1 0 0
vn 0 -1 0
vn 1 0 0

# Mesh 'Cube.001_Cube.002_Cube.001_Cube.002' with 162 faces
g Cube.001_Cube.002_Cube.001_Cube.002
usemtl MATERIAL_NONE
f 1/1/1 2/2/1 3/3/1
f 4/4/2 5/5/2 6/6/2
f 6/6/2 7/7/2 4/4/2
f 8/8/3 9/9/3 10/10/3
f 10/10/3 11/11/3 8/8/3
f 12/12/3 13/13/3 14/14/3
f 14/14/3 15/15/3 12/12/3
f 16/16/3 17/17/3 18/18/3
f 19/19/1 2/2/1 20/20/1
f 20/20/1 21/21/1 19/19/1
f 22/22/4 8/8/4 11/11/4
f 11/11/4 23/23/4 22/22/4
f 24/24/4 22/22/4 23/23/4
f 23/23/4 13/25/4 24/24/4
f 23/23/4 11/11/4 25/26/4
f 26/27/5 27/28/5 28/29/5
f 28/29/5 29/30/5 26/27/5
f 30/31/4 31/32/4 32/33/4
f 32/33/4 33/34/4 30/31/4
f 34/35/2 16/16/2 18/18/2
f 18/18/6 17/17/6 35/36/6
f 35/36/6 34/35/6 18/18/6
f 17/17/6 27/28/6 36/37/6
f 36/37/6 35/36/6 17/17/6
f 37/38/3 5/39/3 38/40/3
f 38/40/3 39/41/3 37/38/3
f 40/42/6 6/6/6 5/5/6
f 5/5/6 37/43/6 40/42/6
f 35/36/6 36/37/6 6/6/6
f 6/6/6 40/42/6 35/36/6
f 16/16/3 28/29/3 27/28/3
f 27/28/3 17/17/3 16/16/3
f 39/41/3 38/40/3 28/29/3
f 28/29/3 16/16/3 39/41/3
f 4/4/6 7/7/6 41/44/6
f 41/44/6 26/45/6 4/4/6
f 42/46/3 4/47/3 26/27/3
f 26/27/3 29/30/3 42/46/3
f 41/44/5 36/37/5 27/28/5
f 27/28/5 26/45/5 41/44/5
f 29/30/6 28/29/6 38/40/6
f 38/40/6 42/46/6 29/30/6
f 7/7/3 6/6/3 36/37/3
f 36/37/3 41/44/3 7/7/3
f 42/46/2 38/40/2 5/39/2
f 5/39/2 4/48/2 42/46/2
f 11/11/3 43/49/3 44/50/3
f 44/50/3 16/16/3 11/11/3
f 44/50/3 45/51/3 16/16/3
f 46/52/6 47/53/6 48/54/6
f 48/54/6 49/55/6 46/52/6
f 14/56/2 13/25/2 35/36/2
f 39/41/3 16/16/3 45/51/3
f 50/57/5 45/51/5 44/50/5
f 44/50/5 51/58/5 50/57/5
f 52/59/3 53/60/3 50/57/3
f 50/57/3 51/58/3 52/59/3
f 53/60/4 39/41/4 45/51/4
f 45/51/4 50/57/4 53/60/4
f 51/58/6 44/50/6 54/61/6
f 54/61/6 52/62/6 51/58/6
f 55/63/3 54/61/3 44/50/3
f 44/50/3 43/49/3 55/63/3
f 13/25/2 23/23/2 35/36/2
f 16/16/2 34/35/2 25/26/2
f 25/26/2 11/11/2 16/16/2
f 34/35/1 35/36/1 23/23/1
f 23/23/1 25/26/1 34/35/1
f 56/64/5 57/65/5 31/32/5
f 31/32/5 30/31/5 56/64/5
f 10/10/3 43/49/3 11/11/3
f 58/66/3 59/67/3 60/68/3
f 60/68/3 61/69/3 58/66/3
f 61/69/6 10/10/6 9/9/6
f 9/9/6 58/66/6 61/69/6
f 59/67/4 55/63/4 43/49/4
f 43/49/4 60/68/4 59/67/4
f 60/68/5 43/49/5 10/10/5
f 10/10/5 61/69/5 60/68/5
f 2/2/1 31/32/1 57/65/1
f 57/65/1 20/20/1 2/2/1
f 62/70/1 63/71/1 32/33/1
f 32/33/1 1/1/1 62/70/1
f 1/1/1 32/33/1 31/32/1
f 31/32/1 2/2/1 1/1/1
f 20/20/1 57/65/1 63/71/1
f 63/71/1 62/70/1 20/20/1
f 64/72/1 47/53/1 65/73/1
f 65/73/1 62/70/1 64/72/1
f 21/21/1 48/54/1 47/53/1
f 47/53/1 64/72/1 21/21/1
f 20/20/1 66/74/1 48/54/1
f 48/54/1 21/21/1 20/20/1
f 62/70/1 65/73/1 66/74/1
f 66/74/1 20/20/1 62/70/1
f 33/34/1 67/75/1 56/64/1
f 56/64/1 30/31/1 33/34/1
f 68/76/1 46/52/1 49/55/1
f 49/55/1 69/77/1 68/76/1
f 49/55/5 48/54/5 66/74/5
f 66/74/5 69/77/5 49/55/5
f 67/75/6 63/71/6 57/65/6
f 57/65/6 56/64/6 67/75/6
f 33/34/2 32/33/2 63/71/2
f 63/71/2 67/75/2 33/34/2
f 69/77/4 66/74/4 65/73/4
f 65/73/4 68/76/4 69/77/4
f 68/76/2 65/73/2 47/53/2
f 47/53/2 46/52/2 68/76/2
f 15/15/2 19/19/2 21/21/2
f 21/21/2 12/12/2 15/15/2
f 15/15/6 14/56/6 2/2/6
f 2/2/6 19/19/6 15/15/6
f 3/3/2 2/2/2 70/78/2
f 70/78/2 2/2/2 14/56/2
f 70/78/2 14/56/2 71/79/2
f 71/79/2 14/56/2 35/36/2
f 72/80/3 73/81/3 74/82/3
f 74/82/3 75/83/3 72/80/3
f 76/84/1 77/85/1 78/86/1
f 78/86/1 79/87/1 76/84/1
f 24/88/4 13/13/4 21/21/4
f 21/21/4 64/89/4 24/88/4
f 80/90/6 81/91/6 82/92/6
f 82/92/6 83/93/6 80/90/6
f 84/94/6 72/80/6 75/83/6
f 75/83/6 85/95/6 84/94/6
f 79/87/6 86/96/6 87/97/6
f 87/97/6 76/84/6 79/87/6
f 70/78/6 77/85/6 88/98/6
f 88/98/6 3/3/6 70/78/6
f 71/79/6 89/99/6 74/82/6
f 74/82/6 70/78/6 71/79/6
f 35/36/6 90/100/6 91/101/6
f 91/101/6 71/79/6 35/36/6
f 3/3/6 88/98/6 92/102/6
f 92/102/6 1/1/6 3/3/6
f 93/103/6 78/86/6 77/85/6
f 77/85/6 70/78/6 93/103/6
f 70/78/6 74/82/6 73/81/6
f 73/81/6 93/103/6 70/78/6
f 94/104/6 95/105/6 89/99/6
f 89/99/6 71/79/6 94/104/6
f 71/79/6 91/101/6 96/106/6
f 96/106/6 94/104/6 71/79/6
f 40/42/6 97/107/6 90/100/6
f 90/100/6 35/36/6 40/42/6
f 85/95/1 89/99/1 95/105/1
f 95/105/1 84/94/1 85/95/1
f 87/97/5 88/98/5 77/85/5
f 77/85/5 76/84/5 87/97/5
f 81/91/3 96/106/3 91/101/3
f 91/101/3 82/92/3 81/91/3
f 83/93/1 90/100/1 97/107/1
f 97/107/1 80/108/1 83/93/1
f 75/83/5 74/82/5 89/99/5
f 89/99/5 85/95/5 75/83/5
f 82/92/5 91/101/5 90/100/5
f 90/100/5 83/93/5 82/92/5
f 86/96/3 92/102/3 88/98/3
f 88/98/3 87/97/3 86/96/3
f 12/12/4 21/21/4 13/13/4

